<?xml version="1.0" standalone="no"?>
<!DOCTYPE svg PUBLIC "-//W3C//DTD SVG 1.1//EN" "http://www.w3.org/Graphics/SVG/1.1/DTD/svg11.dtd" >
<!--
2013-9-30: Created.
-->
<svg>
<metadata>
Created by iconfont
</metadata>
<defs>

<font id="iconfont" horiz-adv-x="1024" >
  <font-face
    font-family="iconfont"
    font-weight="500"
    font-stretch="normal"
    units-per-em="1024"
    ascent="896"
    descent="-128"
  />
    <missing-glyph />
    
    <glyph glyph-name="zhandouzuozhan" unicode="&#59314;" d="M887.36 584.512c5.888 5.824 9.472 13.824 9.472 22.72L896.832 735.168c0 17.664-14.336 32-32 32l-122.368 0c-10.624 2.24-22.016-0.128-30.208-8.384L479.488 525.312 248.128 756.8C239.936 765.056 228.544 767.424 217.984 765.184L95.936 765.184C78.336 765.184 64 750.912 64 733.312l0-127.296C64 597.12 67.648 589.184 73.472 583.36 73.6 583.232 73.664 583.04 73.792 582.848l231.808-231.936-144.128-144.448-40.192 40.448c-12.864 12.928-33.792 12.928-46.656 0-12.928-12.928-12.928-33.856 0-46.784l103.104-103.808L75.52-7.424c-12.928-12.928-12.928-33.92 0-46.848 12.864-12.928 33.792-12.928 46.656 0l102.208 103.68 102.976-103.68c12.864-12.928 33.792-12.928 46.656 0 12.928 12.928 12.928 33.856 0 46.784l-38.4 38.656 144.704 144.896 143.616-143.616-38.336-38.528c-12.864-12.864-12.864-33.728 0-46.656s33.728-12.864 46.656 0l102.72 103.168 101.76-102.848c12.864-12.864 33.728-12.864 46.656 0s12.864 33.728 0 46.656l-101.888 102.912 102.848 103.296c12.864 12.864 12.864 33.728 0 46.656s-33.728 12.864-46.656 0l-40.064-40.192-143.488 143.552 232.768 233.472C887.168 584.128 887.232 584.384 887.36 584.512zM127.872 622.08 127.872 701.504l82.368 0 222.72-222.848L352.192 397.632 127.872 622.08zM751.232 160.192l-80.768-81.088L526.848 222.72l80.832 81.088L751.232 160.192zM832.896 623.36l-543.808-545.28-80.96 81.408 542.144 543.616 82.624 0L832.896 623.36z"  horiz-adv-x="1024" />

    
    <glyph glyph-name="huodongyemian" unicode="&#59129;" d="M888.462071 449.825195l69.390393-47.01785-64.960501-51.55826 53.94461-61.095473-28.279067-12.719696c-33.728172 28.15934-76.997652 45.198411-124.352169 45.198411-107.09104 0-193.97076-86.87972-193.97076-193.971783 0-46.446845 16.352433-89.150436 43.725874-122.536824l-13.740956-49.288566-65.640999 68.026326-42.247196-88.01252-70.186526 81.878822-56.440453-59.391668-39.520085 91.421152-67.796082-38.613436-3.749394 82.902128-90.512457-17.941628 3.406586 98.91687-73.022107 4.65502 36.45426 69.841671-79.267345 35.771715 50.420343 69.845765-69.159126 47.354518 65.185628 51.218522-53.603849 61.325717 80.746022 35.772738-46.562479 76.089979 100.962459 1.589195L180.157149 721.927429l100.165304-13.96813-1.594311 93.234451 87.787392-47.354518 26.351158 93.915973 65.185628-68.367087 42.697451 87.787392 65.530482-81.538061 56.215326 59.616796 40.086997-91.190909 67.569932 38.954197 4.200672-82.905198 90.39887 18.398022-2.837628-98.9138 73.024154-4.314259-36.113499-70.070892 79.382978-35.32146L888.462071 449.825195 888.462071 449.825195 888.462071 449.825195zM369.808534 325.353298c-7.266497 21.694091-30.886451 30.780027-70.862931 27.257807-20.667715-1.589195-31.798217 0.115634-33.617655 5.452175-1.929955 5.788843 2.38635 10.44898 12.94994 14.081717 5.220908 1.815345 9.53619 2.045589 12.944823 0.792039 4.770653-0.109494 8.178263-2.495844 10.334369-7.150864l45.198411 15.214517c-14.873756 28.506241-40.883129 36.795021-78.018911 24.87248-40.314171-14.764262-55.985082-37.361933-46.90324-67.801199 7.612375-22.712281 31.6877-32.248472 72.230068-28.615735 19.871583 1.928932 30.886451 0.11461 32.8205-5.678326 2.270716-6.925736-3.408633-12.604062-17.149589-17.264199-5.336542-1.814322-10.108219-2.270716-14.538111-1.358951-4.54041 1.358951-8.514931 4.425799-11.922541 9.196453l-45.99659-15.33015c14.878872-28.505217 41.906435-37.024242 80.972173-25.663496C362.426403 268.798235 379.575991 292.764066 369.808534 325.353298L369.808534 325.353298 369.808534 325.353298zM445.898513 461.181847l-48.376801-16.241916-3.297093-163.422 46.792723 15.676028-0.912789 20.893866 47.583738 16.011672 11.927657-17.033955 47.583738 16.011672L445.898513 461.181847 445.898513 461.181847 445.898513 461.181847zM601.483011 389.180999l-37.58706 111.747083-48.380894-16.237823 49.062416-145.82011L678.710906 377.252319l-11.472286 34.07405L601.483011 389.180999 601.483011 389.180999 601.483011 389.180999zM809.876248 459.251891l-73.703629-24.761963-7.722892 22.942525 60.188824 20.217461-11.467169 34.06791-60.192917-20.215414-6.925736 20.556175 71.319325 23.959691-11.472286 34.068933-119.695103-40.198537 49.058322-145.82011 121.970936 40.998763L809.876248 459.251891 809.876248 459.251891 809.876248 459.251891zM435.906951 409.39232l33.386388-46.898123-30.886451-10.44898L435.906951 409.39232 435.906951 409.39232 435.906951 409.39232zM794.090726 278.566716c82.789565 0 149.905148-67.115584 149.905148-149.906172 0-82.789565-67.115584-149.905148-149.905148-149.905148-82.790588 0-149.906172 67.115584-149.906172 149.905148C644.184555 211.451132 711.300139 278.566716 794.090726 278.566716L794.090726 278.566716 794.090726 278.566716zM742.077096 59.727569l51.89902 23.167652 51.89902-23.167652-7.150864 53.943586 39.179324 39.747259-56.214303 10.223852-27.714202 47.695279-27.709085-47.695279-56.214303-10.223852 39.179324-39.747259L742.077096 59.727569 742.077096 59.727569 742.077096 59.727569zM742.077096 59.727569"  horiz-adv-x="1024" />

    
    <glyph glyph-name="shangchang" unicode="&#58944;" d="M860.677603 20.201338c-196.586106-196.590137-515.312541-196.590137-711.902678 0-196.585099 196.585099-196.585099 515.312541 0 711.902678 196.590137 196.585099 515.316572 196.585099 711.902678 0C1057.265725 535.51388 1057.265725 216.786437 860.677603 20.201338L860.677603 20.201338zM662.057117 65.425211c44.873222 0 81.248201 36.364903 81.248201 81.227042 0 44.861131-36.374979 81.227042-81.248201 81.227042-44.872215 0-81.251224-36.365911-81.251224-81.227042C580.806901 101.790115 617.184903 65.425211 662.057117 65.425211L662.057117 65.425211zM393.353836 65.64991c44.871207 0 81.247194 36.371956 81.247194 81.228049 0 44.862138-36.376994 81.233087-81.247194 81.233087-44.872215 0-81.247194-36.370949-81.247194-81.233087C312.106642 102.019851 348.480614 65.64991 393.353836 65.64991L393.353836 65.64991zM809.94811 578.606643 291.384995 578.606643l-9.673125 38.712651 0 1.52251c0 8.871061-7.192371 16.061417-16.06444 16.061417l-0.901817 0c-2.586553 0.504816-5.305104 0.528999-8.032724 0L140.574936 634.903221c-8.872069 0-16.061417-7.190356-16.061417-16.061417l0-24.66143c0-8.871061 7.190356-16.06444 16.061417-16.06444l84.208581 0 29.500007-118.010106c0.119906-0.485671 0.278102-0.955221 0.432268-1.421748l44.886321-181.956513c0-11.670222 9.46354-21.133762 21.1388-21.133762l416.966084 0c11.670222 0 21.131747 9.46354 21.131747 21.133762l72.24615 280.746322C831.084895 569.14411 821.622362 578.606643 809.94811 578.606643L809.94811 578.606643z"  horiz-adv-x="1024" />

    
    <glyph glyph-name="erji" unicode="&#58962;" d="M512.256 713.984c-184.128 0-333.376-149.248-333.376-333.376 0-0.512 0-1.024 0-1.472 16.32 5.312 33.664 8.32 51.776 8.32 1.536 0 3.008-0.128 4.544-0.256l0-333.184 56.32 0c10.048 0 18.176 8.256 18.176 18.24L309.696 377.728c0 10.048-8.128 18.176-18.176 18.176l-54.4 0c5.12 147.648 126.272 265.664 275.072 265.664s269.888-118.08 275.072-265.664l-50.368 0c-9.984 0-18.24-8.128-18.24-18.176l0-305.472c0-9.984 8.256-18.24 18.24-18.24l56.32 0 0 333.44c18.304 0 35.84-3.072 52.288-8.512 0 0.576 0 1.152 0 1.664C845.632 564.736 696.448 713.984 512.256 713.984zM64 220.672c0-73.92 48.256-136.576 114.88-158.4l0 316.8C112.256 357.312 64 294.656 64 220.672zM845.632 378.944l0-316.352C912.064 84.48 960 147.008 960 220.672 960 294.528 912.064 356.928 845.632 378.944z"  horiz-adv-x="1024" />

    
    <glyph glyph-name="80dianliang" unicode="&#58936;" d="M144.700101 211.005994l535.580045 0L680.280146 536.762219 144.700101 536.762219 144.700101 211.005994 144.700101 211.005994zM918.373823 455.319325l0 81.442894c0 44.791136-36.649711 81.437777-81.437777 81.437777l-692.235944 0c-44.791136 0-81.437777-36.646642-81.437777-81.437777L63.262324 211.005994c0-44.791136 36.646642-81.442894 81.437777-81.442894l692.235944 0c44.788066 0 81.437777 36.650735 81.437777 81.442894l0 81.437777c22.396079 0 40.7194 18.322297 40.7194 40.7194l0 81.436754C959.093223 436.996005 940.769902 455.319325 918.373823 455.319325L918.373823 455.319325zM877.655446 414.599925l0-81.436754L877.655446 211.005994c0-22.395056-18.323321-40.718377-40.7194-40.718377l-692.235944 0c-22.396079 0-40.7194 18.323321-40.7194 40.718377L103.980701 536.762219c0 22.396079 18.323321 40.7194 40.7194 40.7194l692.235944 0c22.396079 0 40.7194-18.323321 40.7194-40.7194L877.655446 414.599925 877.655446 414.599925zM877.655446 414.599925"  horiz-adv-x="1024" />

    
    <glyph glyph-name="WIFI" unicode="&#58941;" d="M972.810838 597.368856c-122.73839 122.73839-285.936809 190.342764-459.524787 190.342765-173.580752 0-336.779172-67.59715-459.524787-190.342765a43.342807 43.342807 0 0 1 30.655698-73.998504 43.248882 43.248882 0 0 1 30.655697 12.694334c106.366528 106.366528 247.781556 164.946871 398.206167 164.946871s291.854089-58.580343 398.220617-164.946871a43.350032 43.350032 0 0 1 61.311395 61.30417zM513.286051 550.196797c-121.365639 0-235.462922-47.265985-321.281535-133.077373a43.342807 43.342807 0 0 1 0.007225-61.30417c8.460481-8.467706 19.558089-12.701559 30.648472-12.701559s22.187991 4.233853 30.655698 12.701559c69.432301 69.439526 161.760643 107.681479 259.962915 107.681479 98.209497 0 190.53784-38.241953 259.977365-107.681479a43.328357 43.328357 0 0 1 61.296945 0 43.335582 43.335582 0 0 1 0 61.30417c-85.796938 85.818613-199.901446 133.077372-321.267085 133.077373zM327.59619 236.385917a43.350032 43.350032 0 0 1 61.296945-61.30417c68.5942 68.586975 180.184407 68.586975 248.785832 0a43.219982 43.219982 0 0 1 30.648472-12.694334 43.335582 43.335582 0 0 1 30.648473 73.998504c-102.392775 102.392775-268.986947 102.392775-371.379722 0zM513.286051 72.963522a43.342807 43.342807 0 0 1-35.445876-73.752854c9.768207-9.760982 22.614267-14.645086 35.445876-14.645086s25.677669 4.884104 35.445876 14.645086a43.342807 43.342807 0 0 1-35.445876 73.752854z"  horiz-adv-x="1024" />

    
    <glyph glyph-name="fangdajing" unicode="&#58882;" d="M1010.368-54.72L825.344 130.56c29.888 36.16 54.784 76.032 72.832 119.808 22.656 54.976 35.2 115.584 35.2 178.496 0 62.4-12.48 121.088-34.304 176.128l-0.896 2.368c-23.36 56-57.216 106.752-99.584 149.376l-2.048 2.112C754.24 801.728 702.272 836.416 645.44 860.16 590.016 882.944 529.792 896 466.816 896c-128.64 0-245.44-52.928-329.984-137.152-43.136-42.88-77.504-94.336-101.568-151.488C12.736 551.744 0 491.52 0 428.8c0-62.016 12.736-121.92 34.624-176.448l0.64-2.048c23.68-57.472 58.432-109.184 101.568-151.808 43.136-43.136 94.336-77.504 151.424-100.928 55.04-23.104 115.648-35.264 178.56-35.264S590.208-25.6 645.44-2.432c43.776 17.92 83.904 42.624 119.808 72.384l185.216-185.216c16.768-16.448 43.52-16.448 59.968 0 16.896 16.64 16.896 43.84-0.064 60.544zM736.384 159.296l-1.024-0.576c-34.624-34.944-76.544-62.912-122.88-82.688-44.352-17.984-93.952-28.544-145.664-28.544-52.032 0-101.248 10.56-145.984 28.544-46.528 19.776-88.448 48.32-123.52 83.264h-0.256 0.32c-35.328 35.968-63.552 77.312-83.072 124.16l-0.576 1.472c-18.176 44.416-28.032 93.44-28.032 143.872 0 52.032 9.984 101.056 28.608 145.984 19.52 46.272 47.488 88.192 83.072 122.88C266.496 767.36 361.344 809.92 466.816 809.92c51.712 0 101.312-10.688 145.664-28.608 46.848-19.776 88.576-47.808 123.904-83.648l2.112-1.856c33.92-33.984 61.44-75.712 80.512-121.024l0.96-2.368C837.632 528 848 479.936 848 428.8c0-51.712-10.304-101.248-28.928-145.344-19.136-47.488-47.744-89.408-82.688-124.16zM349.12 707.136c-18.24-7.616-35.584-17.344-51.136-27.648-15.744-11.584-30.976-23.424-44.416-36.8v-0.32c-13.952-13.696-26.752-28.864-37.12-44.672v-0.32c-11.2-16.512-20.544-33.216-27.84-50.816-5.568-13.376 0.576-28.288 13.952-33.792 12.8-5.504 27.968 0.64 33.408 13.696 5.824 14.656 13.504 29.184 22.592 42.624v-0.576c9.216 13.632 19.776 25.792 30.976 37.632 11.264 11.328 24.064 21.952 37.76 30.464 12.736 9.408 27.328 16.768 41.92 22.784 12.8 6.08 19.2 20.992 13.952 34.048-6.08 13.376-20.608 18.88-34.048 13.696z m394.176-252.48c-14.272 0-25.6-11.2-25.6-25.856 0-33.088-6.656-65.088-19.328-96.064v-1.856c-12.48-28.544-30.592-55.296-54.656-79.68-23.872-23.744-51.584-41.344-81.088-54.208-30.464-12.416-63.36-19.456-95.872-19.456-14.272 0-25.856-10.944-25.856-25.28 0-14.016 11.584-25.792 25.856-25.792 39.232 0 78.72 7.872 115.904 23.04 35.264 14.592 68.736 36.544 97.6 65.152 28.544 28.48 49.856 62.016 65.088 97.344v0.96c15.488 37.12 23.36 76.416 23.36 115.904 0.128 14.592-11.328 25.792-25.408 25.792z"  horiz-adv-x="1024" />

    
    <glyph glyph-name="xiangji" unicode="&#58898;" d="M510.662-65.276c-247.276 0-447.732 200.453-447.732 447.732S263.386 830.188 510.662 830.188c247.274 0 447.732-200.453 447.732-447.732S757.936-65.276 510.662-65.276z m232.036 554.15c0 18.843-15.37 34.11-34.328 34.11h-75.498c-11.77 5.14-15.823 13.073-15.823 13.073l-1.13-0.077-2.815 5.682c-9.779 22.596-33.415 33.613-61.903 33.613h-69.256c-31.886 0-50.129-13.806-60.224-32.898l-2.422 0.217s-6.68-16.596-28.813-19.61h-64.457c-18.96 0-34.331-15.267-34.331-34.11v-252.048c0-18.843 15.37-34.118 34.33-34.118H708.37c18.958 0 34.328 15.275 34.328 34.118V488.874z m-78.523-44.45c-10.839 0-19.622 8.82-19.622 19.71s8.783 19.71 19.622 19.71c10.838 0 19.621-8.82 19.621-19.71s-8.783-19.71-19.62-19.71zM517.2 254.998c-55.954 0-101.311 45.357-101.311 101.312 0 55.954 45.358 101.31 101.31 101.31s101.312-45.357 101.312-101.31C618.51 300.357 573.153 255 517.2 255z m-0.02 170.058c-37.852 0-68.534-30.728-68.534-68.637s30.682-68.636 68.533-68.636c37.859 0 68.541 30.727 68.541 68.636 0.002 37.91-30.682 68.637-68.54 68.637z"  horiz-adv-x="1024" />

    
    <glyph glyph-name="xiaoyuhao" unicode="&#58916;" d="M326.015-81.326l434.168 434.691c7.874 7.876 12.743 18.756 12.743 30.772s-4.87 22.897-12.743 30.772l-435.257 435.779c-7.928 8.211-19.032 13.31-31.328 13.31-24.037 0-43.525-19.487-43.525-43.525 0-12.274 5.081-23.362 13.253-31.274l435.269-435.834v61.545l-434.168-434.735c-8.184-7.924-13.266-19.012-13.266-31.285 0-24.037 19.487-43.525 43.525-43.525 12.297 0 23.401 5.098 31.316 13.297z"  horiz-adv-x="1024" />

    
    <glyph glyph-name="dayuhao" unicode="&#58635;" d="M704.88985599 697.536512l-305.09465599-314.126336 328.646656-326.689792c15.76448-21.392384-16.36352-68.62438401-61.643776-54.110208l-366.610432 364.102656c-4.876288 4.992-7.6544 11.73606399-7.65439999 18.798592s2.778112 13.804544 7.70559998 18.746368L661.67808 768.360448c58.891264 0.128 65.717248-44.051456 43.21177599-70.823936z"  horiz-adv-x="1024" />

    
    <glyph glyph-name="xiaoxi" unicode="&#58889;" d="M634.774424 477.076977H384.851722c-17.247289 0-31.23973 13.997306-31.23973 31.239729 0 17.246073 13.992441 31.238513 31.23973 31.238514h249.923919c17.275264 0 31.23973-13.992441 31.239729-31.238514-0.001216-17.242424-13.969331-31.23973-31.240946-31.239729z m-59.295157-124.961351h-190.632411c-17.242424 0-31.23973 13.99609-31.239729 31.238513 0 17.247289 13.997306 31.23973 31.239729 31.23973h190.632411c17.275264 0 31.23973-13.992441 31.23973-31.23973 0-17.242424-13.997306-31.238513-31.23973-31.238513z m373.88303 93.721621c0 206.71569-196.187302 374.88527-437.363513 374.88527S74.630405 652.552937 74.630405 445.837247c0-113.749397 61.5429-220.685021 168.825172-293.534747 14.277058-9.748732 33.705192-6.001278 43.393109 8.309837 9.683051 14.278274 5.962356 33.710057-8.314702 43.393108C188.659554 265.020466 137.108648 353.145841 137.108648 445.837247c0 172.260034 168.16958 312.407027 374.88527 312.407027 206.720555 0 374.88527-140.146993 374.88527-312.407027S718.714473 133.431436 511.993918 133.431436c-1.933934 0-3.591766-0.746815-5.435693-1.093463-14.775745 2.656423-29.737586-5.087829-34.926368-19.712751-5.995197-16.961456-45.263795-45.544762-91.906886-72.037231 17.023488 56.823614 8.870556 69.009833 3.402022 77.101949a35.174495 35.174495 0 0 1-29.206058 15.555401c-17.247289 0-31.238513-13.963249-31.238513-31.23973 0-5.682605 1.496062-10.993018 4.152485-15.588241-3.155111-17.773951-16.805768-59.39003-32.271161-97.470291-4.812942-11.80673-1.937583-25.367381 7.217589-34.237936a31.225134 31.225134 0 0 1 21.741558-8.780549c4.280198 0 8.589588 0.874528 12.686122 2.689263 35.609935 15.869209 144.136493 67.477281 183.15818 122.647928 237.775405 3.436078 429.995101 169.979451 429.995102 374.571462z m0 0"  horiz-adv-x="1024" />

    
    <glyph glyph-name="index" unicode="&#58626;" d="M569.8048 874.7264a82.0736 82.0736 0 0 1-110.2848 0L13.568 451.2768a41.1392 41.1392 0 0 1 55.0912-61.1072l7.0912 6.7328V-45.05600000000004a82.2784 82.2784 0 0 1 82.2784-82.3808h239.4368v247.7056a57.9328 57.9328 0 0 0 57.9584 58.0096h112.6656a57.9328 57.9328 0 0 0 57.9584-58.0096v-247.7056h245.12a82.2784 82.2784 0 0 1 82.304 82.3808V391.5008c18.2784-16.5376 44.2112-15.2832 59.4176 1.664a41.1392 41.1392 0 0 1-2.9696 58.112L569.8048 874.7008z"  horiz-adv-x="1024" />

    
    <glyph glyph-name="weixin" unicode="&#58666;" d="M512 855.04c259.76832 0 471.04-211.27168 471.04-471.04 0-259.72736-211.27168-471.04-471.04-471.04C252.27264-87.04 40.96 124.27264 40.96 384 40.96 643.76832 252.27264 855.04 512 855.04m0 40.96C229.23264 896 0 666.80832 0 384c0-282.76736 229.23264-512 512-512s512 229.23264 512 512C1024 666.80832 794.76736 896 512 896M614.68672 482.54976c6.88128 0 13.7216-0.49152 20.43904-1.24928-18.35008 85.52448-109.81376 149.07392-214.2208 149.07392-116.69504 0-212.29568-79.54432-212.29568-180.5312 0-58.34752 31.80544-106.22976 84.95104-143.31904l-21.23776-63.8976 74.21952 37.21216c26.56256-5.26336 47.86176-10.67008 74.36288-10.67008 6.67648 0 13.29152 0.34816 19.82464 0.83968a158.65856 158.65856 0 0 0-6.53312 44.50304c0 92.75392 79.62624 168.0384 180.49024 168.0384m-114.176 57.5488c15.99488 0 26.60352-10.52672 26.60352-26.50112 0-15.89248-10.60864-26.56256-26.60352-26.56256-15.89248 0-31.88736 10.67008-31.88736 26.56256 0 15.99488 15.99488 26.50112 31.88736 26.50112m-148.56192-53.06368c-15.91296 0-31.98976 10.67008-31.98976 26.58304 0 15.9744 16.0768 26.48064 31.98976 26.48064 15.89248 0 26.50112-10.50624 26.50112-26.48064 0-15.91296-10.62912-26.58304-26.50112-26.58304m456.54016-169.984c0 84.8896-84.95104 154.09152-180.36736 154.09152-101.00736 0-180.57216-69.2224-180.57216-154.09152 0-85.01248 79.5648-154.03008 180.57216-154.03008 21.11488 0 42.47552 5.30432 63.71328 10.62912l58.20416-31.86688-15.91296 53.0432c42.5984 31.9488 74.36288 74.36288 74.36288 122.22464m-238.87872 26.56256c-10.60864 0-21.23776 10.52672-21.23776 21.25824 0 10.58816 10.6496 21.21728 21.23776 21.21728 16.03584 0 26.56256-10.6496 26.56256-21.21728-0.02048-10.73152-10.52672-21.25824-26.56256-21.25824m116.75648 0c-10.52672 0-21.07392 10.52672-21.07392 21.25824 0 10.58816 10.56768 21.21728 21.07392 21.21728 15.872 0 26.60352-10.6496 26.60352-21.21728 0-10.73152-10.73152-21.25824-26.60352-21.25824"  horiz-adv-x="1024" />

    
    <glyph glyph-name="wifi" unicode="&#59900;" d="M214 342c166 164 432 164 596 0L726 256C608 374 416 374 298 256zM384 170c70 70 186 70 256 0l-128-128zM42 512c260 258 682 258 940 0L896 426c-212 212-556 212-768 0z"  horiz-adv-x="1024" />

    
    <glyph glyph-name="lanya" unicode="&#58946;" d="M756.736 216.192l0.096 0.112L561.168 384l195.648 167.696-0.096 0.112c6.848 5.872 11.28 14.48 11.28 24.192a31.84 31.84 0 0 1-11.264 24.192l0.096 0.112-224 192-0.096-0.112C527.136 796.992 519.952 800 512 800a32 32 0 0 1-32-32v-314.416l-171.168 146.72-0.096-0.112c-5.6 4.8-12.784 7.808-20.736 7.808a32 32 0 0 1-32-32c0-9.712 4.432-18.32 11.264-24.192l-0.096-0.112L462.832 384 267.168 216.304l0.096-0.112A31.84 31.84 0 0 1 256 192a32 32 0 0 1 32-32c7.952 0 15.136 3.008 20.736 7.808l0.096-0.112L480 314.416V0a32 32 0 0 1 32-32c7.952 0 15.136 3.008 20.736 7.808l0.096-0.112 224 192-0.096 0.112A31.84 31.84 0 0 1 768 192a31.84 31.84 0 0 1-11.264 24.192zM686.832 192L544 69.584V314.416L686.832 192zM544 453.584V698.416L686.832 576 544 453.584z"  horiz-adv-x="1024" />

    
    <glyph glyph-name="ic_addToCar" unicode="&#58908;" d="M374.4 224c-19.2 0-35.2-16-35.2-35.2 0-19.2 16-35.2 35.2-35.2 19.2 0 35.2 16 35.2 35.2 0 19.2-16 35.2-35.2 35.2z m348.8 0c-19.2 0-35.2-16-35.2-35.2 0-19.2 16-35.2 35.2-35.2 19.2 0 35.2 16 35.2 35.2 3.2 19.2-12.8 35.2-35.2 35.2z m0-144c-60.8 0-108.8 48-108.8 108.8 0 12.8 3.2 25.6 6.4 38.4h-147.2c3.2-12.8 6.4-25.6 6.4-38.4 0-60.8-48-108.8-108.8-108.8S262.4 128 262.4 188.8c0 48 32 89.6 76.8 102.4l-64 339.2h-64c-19.2 0-35.2 16-35.2 35.2-3.2 22.4 12.8 38.4 35.2 38.4h80c25.6 0 44.8-16 51.2-41.6l3.2-28.8h204.8c-6.4-12.8-6.4-25.6-6.4-41.6 0-115.2 92.8-208 204.8-208-12.8-9.6-28.8-16-44.8-16h-307.2l16-70.4h307.2c6.4 0 9.6 0 12.8-3.2 54.4-6.4 96-51.2 96-108.8 3.2-57.6-44.8-105.6-105.6-105.6zM688 608c-9.6 0-16-6.4-16-16s6.4-16 16-16H736v-48c0-9.6 6.4-16 16-16s16 6.4 16 16V576h48c9.6 0 16 6.4 16 16s-6.4 16-16 16H768V656c0 9.6-6.4 16-16 16s-16-6.4-16-16V608h-48z m64-160C672 448 608 512 608 592S672 736 752 736 896 672 896 592 832 448 752 448z"  horiz-adv-x="1024" />

    
    <glyph glyph-name="paiweisai" unicode="&#58937;" d="M456.017689 671.680639a398.818363 398.818363 0 1 1 397.540918-398.562875A395.752495 395.752495 0 0 1 456.017689 671.680639z m201.836327-359.473054l-78.179641-78.43513 19.672655-111.137724c4.598802-27.081836-3.321357-41.644711-19.417166-41.644711a53.141717 53.141717 0 0 0-25.548902 8.942116l-97.852295 51.097804-97.852296-51.097804a47.00998 47.00998 0 0 0-23.760479-7.92016c-17.628743 0-25.548902 16.862275-21.972056 40.622755l19.672655 111.137724-78.179641 78.43513c-25.548902 25.548902-19.672655 51.097804 19.672655 58.762475l103.473054 13.02994 45.732535 98.107784c6.642715 16.351297 16.351297 25.548902 26.826347 25.548903s21.972056-8.175649 31.680639-25.548903l45.732535-98.107784 110.882235-13.02994c40.111776-5.365269 51.097804-32.702595 19.672655-58.762475z m176.287425 582.770459h-247.824351c-15.329341 0-20.694611-9.964072-25.548902-19.672655l-79.201597-144.606786s163.001996-6.642715 260.854291-104.49501l110.882236 229.94012a41.133733 41.133733 0 0 1 5.10978 14.307385 25.548902 25.548902 0 0 1-25.548902 25.548902z m-766.467066-61.317365l102.195609-206.690619c96.830339 84.055888 260.598802 97.085828 260.598802 97.085828L351.522679 874.283433c-8.431138 13.540918-13.02994 19.672655-25.548903 19.672655H84.281162A33.213573 33.213573 0 0 1 54.388946 878.115768a42.666667 42.666667 0 0 1 4.087824-29.381237z m0 0"  horiz-adv-x="1024" />

    
    <glyph glyph-name="start" unicode="&#58909;" d="M0 384c0-282.7776 229.2224-512 512-512s512 229.2224 512 512S794.7776 896 512 896 0 666.7776 0 384M451.5072 514.304V230.39999999999998l204.8 148.9664-204.8 134.9632z m-46.5408-423.5264c-9.344 0-13.9776 0-18.6368 4.6592-13.952 9.2928-27.9296 23.2704-27.9296 41.856v460.8c0 18.6368 9.3184 32.6144 23.2704 41.9072a42.368 42.368 0 0 0 46.5664 0l330.4704-214.0928c13.952-9.3184 18.6112-23.296 23.2704-37.248 0-13.952-4.6592-27.9296-18.6112-37.2224l-330.496-246.7072c-9.2928-9.2928-18.6112-13.952-27.904-13.952z"  horiz-adv-x="1024" />

    
    <glyph glyph-name="duigou" unicode="&#58748;" d="M384.12 74.884c-11.919 0-23.838 4.527-32.937 13.573L77.63 360.667c-18.196 18.108-18.196 47.457 0 65.558 18.196 18.107 47.675 18.1 65.871 0.007l240.62-239.436 495.173 492.739c18.197 18.107 47.675 18.107 65.871 0 18.197-18.1 18.197-47.45 0-65.557L417.056 88.464c-9.1-9.053-21.018-13.58-32.937-13.58z"  horiz-adv-x="1024" />

    
    <glyph glyph-name="regression_black" unicode="&#58888;" d="M959.744 895.3856H115.1488C53.76 895.3856 0 848.2304 0 785.3056V-16.384c0-62.8736 53.76-110.08 115.2-110.08h844.544c61.44 0 115.2 47.2064 115.2 110.08V785.408c0 62.8736-53.76 110.0288-115.2 110.0288z m46.08-911.8208c0-23.552-23.04-47.104-46.08-47.104H115.1488c-23.04 0-46.08 23.552-46.08 47.104V785.408c0 23.552 23.04 47.104 46.08 47.104h844.5952c23.04 0 46.08-23.552 46.08-47.104v-801.792zM842.6496 254.7712c-13.4144 56.9856-40.2944 110.08-76.8 157.184 0 0 0 1.9968-1.8944 1.9968-19.2 21.6064-38.4 45.1584-61.44 62.8736a422.1952 422.1952 0 0 1-34.56 27.4944l-36.4544 23.552c-24.9344 15.7696-49.92 25.6-76.8 39.3216-9.5744 3.9424-17.2544 5.888-26.8288 9.8304l11.52 92.3648c1.8944 17.7152-15.36 31.4368-30.72 23.552L236.032 529.92c-15.36-7.8336-19.2-29.4912-5.7344-39.2704l224.5632-227.9936c13.4144-9.7792 34.56-1.9456 36.4544 15.7184l11.52 86.528 9.6256-3.9936c9.5744-3.8912 19.2-5.888 28.7744-11.776 38.4-15.7184 72.96-35.328 105.5744-56.9856 32.6144-23.552 63.3344-51.0976 92.16-84.48 28.7744-33.4336 53.76-74.7008 74.8544-119.8592v-1.9968a15.1552 15.1552 0 0 1 7.68-7.8336c7.68-1.9968 15.36 1.9456 17.2544 7.8336 19.2 55.04 17.2544 112.0256 3.84 168.96z"  horiz-adv-x="1075" />

    
    <glyph glyph-name="jiantou" unicode="&#58886;" d="M175.8208 566.5792a40.96 40.96 0 0 0 53.3504 3.9424l4.608-3.9424L512 288.256l278.2208 278.272a40.96 40.96 0 0 0 53.3504 3.9424l4.608-3.9424a40.96 40.96 0 0 0 3.9424-53.3504l-3.9424-4.608-307.2-307.2a40.96 40.96 0 0 0-53.3504-3.9424l-4.608 3.9424-307.2 307.2a40.96 40.96 0 0 0 0 57.9584z"  horiz-adv-x="1024" />

    
    <glyph glyph-name="shipinzhongxin" unicode="&#58901;" d="M1021.21472 580.608a27.05408 27.05408 0 0 1-7.72096 12.0832L678.44096 896H83.53792C37.4784 896 0 859.3408 0 814.24384v-860.50816C0-91.32032 37.4784-128 83.51744-128h856.96512C986.5216-128 1024-91.3408 1024-46.26432V568.7296c0 4.25984-1.00352 8.2944-2.78528 11.8784zM677.21216 808.8576l218.43968-196.096h-191.52896c-14.848 0-26.91072 11.73504-26.91072 26.13248V808.8576z m261.9392-893.27616H93.04064c-15.1552 0-27.48416 12.20608-27.48416 27.2384V803.38944c0 15.03232 12.32896 27.2384 27.48416 27.2384h551.3216v-214.30272c0-45.09696 36.98688-81.77664 82.47296-81.77664H966.656v-591.72864c0-15.03232-12.32896-27.2384-27.48416-27.2384zM143.36 732.16h61.44v-61.44H143.36V732.16zM143.36 588.8h61.44v-61.44H143.36v61.44zM143.36 404.48h61.44v-61.44H143.36v61.44zM143.36 240.64h61.44v-61.44H143.36zM143.36 97.28h61.44v-61.44H143.36zM798.72 404.48h61.44v-61.44h-61.44zM798.72 240.64h61.44v-61.44h-61.44zM798.72 97.28h61.44v-61.44h-61.44v61.44zM660.992 433.2544l-239.3088 125.3376c-12.32896 6.4512-24.73984 9.728-36.92544 9.728C351.17056 568.32 327.68 544.07168 327.68 509.3376v-250.6752c0-34.73408 23.47008-58.9824 57.07776-58.9824 12.1856 0 24.59648 3.2768 36.92544 9.728l239.3088 125.35808C683.43808 346.5216 696.32 364.46208 696.32 384.02048c0 19.51744-12.88192 37.4784-35.328 49.23392z m-35.20512-41.90208l-247.74656-124.25216c-2.80576-1.39264-4.87424-2.048-6.2464-2.37568a19.968 19.968 0 0 0-0.73728 5.87776V519.08608c0 2.70336 0.36864 4.62848 0.73728 5.85728 1.37216-0.3072 3.44064-0.96256 6.2464-2.3552L625.78688 398.336c2.70336-1.35168 4.44416-2.60096 5.48864-3.50208-1.04448-0.9216-2.78528-2.1504-5.48864-3.50208z"  horiz-adv-x="1024" />

    
    <glyph glyph-name="zuoyouhuadong" unicode="&#59068;" d="M475.428571 896h365.714286L548.571429 384l292.571428-512H475.428571L182.857143 390.363429z"  horiz-adv-x="1024" />

    


  </font>
</defs>
</svg>
